<svg width="520" height="411" viewBox="0 0 520 411" fill="none" xmlns="http://www.w3.org/2000/svg">
<mask id="mask0" mask-type="alpha" maskUnits="userSpaceOnUse" x="0" y="0" width="520" height="411">
<path d="M0 100C0 44.7715 44.7715 0 100 0H505C513.284 0 520 6.71573 520 15V395.625C520 403.909 513.284 410.625 505 410.625H15C6.71572 410.625 0 403.909 0 395.625V100Z" fill="#C4C4C4"/>
</mask>
<g mask="url(#mask0)">
<path d="M-244.541 -52.9577C-244.541 -108.186 -199.769 -152.958 -144.541 -152.958H806.694C814.978 -152.958 821.694 -146.242 821.694 -137.958V611.203C821.694 619.487 814.978 626.203 806.694 626.203H-229.541C-237.825 626.203 -244.541 619.487 -244.541 611.203V-52.9577Z"/>
</g>
</svg>
